<svg width="100" height="100" viewBox="0 0 100 100" fill="none" xmlns="http://www.w3.org/2000/svg">
<path fill-rule="evenodd" clip-rule="evenodd" d="M48.0001 4.16663V16.6666C65.6801 16.6666 80.0002 31.5833 80.0002 50C80.0002 56.5416 78.1601 62.625 75.0401 67.75L69.2001 61.6666C71.0001 58.2083 72.0001 54.2083 72.0001 50C72.0001 36.2083 61.2401 25 48.0001 25V37.5L32.0001 20.8333L48.0001 4.16663ZM24.0001 50C24.0001 63.7916 34.7601 75 48.0001 75V62.5L64.0001 79.1666L48.0001 95.8333V83.3333C30.3201 83.3333 16.0001 68.4166 16.0001 50C16.0001 43.4583 17.8401 37.375 20.9601 32.25L26.8001 38.3333C25.0001 41.7916 24.0001 45.7916 24.0001 50Z" fill="black" fill-opacity="0.54"/>
</svg>
