<svg width="84" height="84" viewBox="0 0 84 84" fill="none" xmlns="http://www.w3.org/2000/svg">
<path fill-rule="evenodd" clip-rule="evenodd" d="M77.7917 25H83.3333C83.3333 11.2083 72.125 0 58.3333 0V5.54167C69.0833 5.54167 77.7917 14.25 77.7917 25ZM41.6667 62.5C48.5702 62.5 54.1667 56.9036 54.1667 50C54.1667 43.0964 48.5702 37.5 41.6667 37.5C34.7631 37.5 29.1667 43.0964 29.1667 50C29.1667 56.9036 34.7631 62.5 41.6667 62.5ZM72.2083 25H66.6667C66.6667 20.375 62.9583 16.6667 58.3333 16.6667V11.125C66 11.125 72.2083 17.3334 72.2083 25ZM54.1667 20.8333V8.33333H29.1667L21.5417 16.6667H8.33333C3.75 16.6667 0 20.4167 0 25V75C0 79.5833 3.75 83.3333 8.33333 83.3333H75C79.5833 83.3333 83.3333 79.5833 83.3333 75V29.1667H62.5C62.5 24.5417 58.7917 20.8333 54.1667 20.8333ZM20.8333 50C20.8333 61.5 30.1667 70.8333 41.6667 70.8333C53.1667 70.8333 62.5 61.5 62.5 50C62.5 38.5 53.1667 29.1667 41.6667 29.1667C30.1667 29.1667 20.8333 38.5 20.8333 50Z" fill="black" fill-opacity="0.54"/>
</svg>
