<svg width="70" height="70" viewBox="0 0 70 70" fill="none" xmlns="http://www.w3.org/2000/svg">
<path fill-rule="evenodd" clip-rule="evenodd" d="M14.6125 8.75H55.4458C58.6542 8.75 61.25 11.375 61.25 14.5833V55.4167C61.25 58.625 58.6542 61.25 55.4458 61.25H14.6125C11.4042 61.25 8.77917 58.625 8.77917 55.4167V14.5833C8.77917 11.375 11.4042 8.75 14.6125 8.75ZM39.4042 35C41.825 35 43.7792 33.0458 43.7792 30.625V26.25C43.7792 23.0125 41.1542 20.4167 37.9458 20.4167H26.25V26.25H37.9167V32.0833H32.0833V37.9167H37.9167V43.75H26.25V49.5833H37.9458C41.1542 49.5833 43.7792 46.9875 43.7792 43.75V39.375C43.7792 36.9542 41.825 35 39.4042 35Z" fill="black" fill-opacity="0.54"/>
</svg>
