<svg width="70" height="70" viewBox="0 0 70 70" fill="none" xmlns="http://www.w3.org/2000/svg">
<path fill-rule="evenodd" clip-rule="evenodd" d="M14.5833 8.75H55.4167C58.625 8.75 61.25 11.375 61.25 14.5833V55.4167C61.25 58.625 58.625 61.25 55.4167 61.25H14.5833C11.375 61.25 8.75 58.625 8.75 55.4167V14.5833C8.75 11.375 11.375 8.75 14.5833 8.75ZM37.9167 37.9167C41.125 37.9167 43.75 35.3208 43.75 32.0833V26.25C43.75 23.0125 41.125 20.4167 37.9167 20.4167H26.25V26.25H37.9167V32.0833H32.0833C28.875 32.0833 26.25 34.6792 26.25 37.9167V49.5833H43.75V43.75H32.0833V37.9167H37.9167Z" fill="black" fill-opacity="0.54"/>
</svg>
